HIERARCHY
ROOT Hips
{
	OFFSET 0.00000 0.00000 0.00000
	CHANNELS 6 Xposition Yposition Zposition Zrotation Yrotation Xrotation 
	JOINT LHipJoint
	{
		OFFSET 0 0 0
		CHANNELS 3 Zrotation Yrotation Xrotation
		JOINT LeftUpLeg
		{
			OFFSET 1.46561 -1.72757 0.83774
			CHANNELS 3 Zrotation Yrotation Xrotation
			JOINT LeftLeg
			{
				OFFSET 2.48915 -6.83890 0.00000
				CHANNELS 3 Zrotation Yrotation Xrotation
				JOINT LeftFoot
				{
					OFFSET 2.60555 -7.15868 0.00000
					CHANNELS 3 Zrotation Yrotation Xrotation
					JOINT LeftToeBase
					{
						OFFSET 0.19248 -0.52884 2.26738
						CHANNELS 3 Zrotation Yrotation Xrotation
						End Site
						{
							OFFSET 0.00000 -0.00000 1.17015
						}
					}
				}
			}
		}
	}
	JOINT RHipJoint
	{
		OFFSET 0 0 0
		CHANNELS 3 Zrotation Yrotation Xrotation
		JOINT RightUpLeg
		{
			OFFSET -1.46918 -1.72757 0.83774
			CHANNELS 3 Zrotation Yrotation Xrotation
			JOINT RightLeg
			{
				OFFSET -2.49034 -6.84216 0.00000
				CHANNELS 3 Zrotation Yrotation Xrotation
				JOINT RightFoot
				{
					OFFSET -2.65971 -7.30750 0.00000
					CHANNELS 3 Zrotation Yrotation Xrotation
					JOINT RightToeBase
					{
						OFFSET -0.19227 -0.52827 2.30785
						CHANNELS 3 Zrotation Yrotation Xrotation
						End Site
						{
							OFFSET -0.00000 -0.00000 1.18972
						}
					}
				}
			}
		}
	}
	JOINT LowerBack
	{
		OFFSET 0 0 0
		CHANNELS 3 Zrotation Yrotation Xrotation
		JOINT Spine
		{
			OFFSET 0.02432 2.19909 -0.28000
			CHANNELS 3 Zrotation Yrotation Xrotation
			JOINT Spine1
			{
				OFFSET 0.03714 2.21816 -0.15261
				CHANNELS 3 Zrotation Yrotation Xrotation
				JOINT Neck
				{
					OFFSET 0 0 0
					CHANNELS 3 Zrotation Yrotation Xrotation
					JOINT Neck1
					{
						OFFSET -0.01896 1.56165 0.21681
						CHANNELS 3 Zrotation Yrotation Xrotation
						JOINT Head
						{
							OFFSET 0.02744 1.56009 0.06764
							CHANNELS 3 Zrotation Yrotation Xrotation
							End Site
							{
								OFFSET 0.01212 1.60574 0.00298
							}
						}
					}
				}
				JOINT LeftShoulder
				{
					OFFSET 0 0 0
					CHANNELS 3 Zrotation Yrotation Xrotation
					JOINT LeftArm
					{
						OFFSET 3.05595 1.48048 -0.60794
						CHANNELS 3 Zrotation Yrotation Xrotation
						JOINT LeftForeArm
						{
							OFFSET 5.20607 -0.00000 -0.00000
							CHANNELS 3 Zrotation Yrotation Xrotation
							JOINT LeftHand
							{
								OFFSET 3.39961 -0.00000 0.00000
								CHANNELS 3 Zrotation Yrotation Xrotation
								JOINT LeftFingerBase
								{
									OFFSET 0 0 0
									CHANNELS 3 Zrotation Yrotation Xrotation
									JOINT LeftHandIndex1
									{
										OFFSET 0.51969 -0.00000 0.00000
										CHANNELS 3 Zrotation Yrotation Xrotation
										End Site
										{
											OFFSET 0.41899 -0.00000 0.00000
										}
									}
								}
								JOINT LThumb
								{
									OFFSET 0 0 0
									CHANNELS 3 Zrotation Yrotation Xrotation
									End Site
									{
										OFFSET 0.42539 -0.00000 0.42539
									}
								}
							}
						}
					}
				}
				JOINT RightShoulder
				{
					OFFSET 0 0 0
					CHANNELS 3 Zrotation Yrotation Xrotation
					JOINT RightArm
					{
						OFFSET -2.99052 1.57608 -0.69102
						CHANNELS 3 Zrotation Yrotation Xrotation
						JOINT RightForeArm
						{
							OFFSET -5.32214 -0.00000 0.00000
							CHANNELS 3 Zrotation Yrotation Xrotation
							JOINT RightHand
							{
								OFFSET -3.51208 -0.00000 0.00000
								CHANNELS 3 Zrotation Yrotation Xrotation
								JOINT RightFingerBase
								{
									OFFSET 0 0 0
									CHANNELS 3 Zrotation Yrotation Xrotation
									JOINT RightHandIndex1
									{
										OFFSET -0.58668 -0.00000 0.00000
										CHANNELS 3 Zrotation Yrotation Xrotation
										End Site
										{
											OFFSET -0.47300 -0.00000 0.00000
										}
									}
								}
								JOINT RThumb
								{
									OFFSET 0 0 0
									CHANNELS 3 Zrotation Yrotation Xrotation
									End Site
									{
										OFFSET -0.48022 -0.00000 0.48022
									}
								}
							}
						}
					}
				}
			}
		}
	}
}
MOTION
Frames: 5
Frame Time: .0083333
0.7288 17.6003 9.7426 -3.5301 0.5489 16.0017 0.0000 0.0000 0.0000 -15.7488 -3.6662 -33.6982 2.7632 10.3015 29.9587 0.2779 0.0369 -9.9703 0.0984 -2.0229 -5.5690 0.0000 0.0000 0.0000 18.2288 10.7652 -32.5600 -2.7489 -10.2770 29.8786 -0.2684 2.3901 -9.2504 -0.2137 -2.9761 8.2122 -1.4093 0.5938 12.3854 1.7742 0.6508 7.2464 2.5622 0.2452 0.6093 1.2076 0.4190 -12.5838 -0.7795 0.4621 14.6123 -0.4052 0.2235 6.5239 -0.0000 0.0000 0.0000 -83.4076 -1.3817 28.5710 11.4981 -19.0478 -1.9354 -0.0000 0.0000 -23.6534 24.5561 -8.1082 -3.6873 -7.1250 0.0000 -0.0000 -1.6615 21.0792 0.9532 -0.0000 0.0000 0.0000 88.3108 4.8233 16.6817 -19.2939 29.7822 -5.1760 0.0000 0.0000 24.9016 -28.9246 -24.7384 13.0205 7.1250 -0.0000 -0.0000 0.6496 -57.7421 -0.2026
0.7372 17.5971 9.7894 -3.5299 0.6042 16.1388 0.0000 0.0000 0.0000 -15.8652 -3.6018 -33.6755 2.7560 10.2892 29.9183 0.2871 0.1760 -10.1863 0.0919 -1.9547 -5.3806 0.0000 0.0000 0.0000 18.2401 10.6787 -32.4571 -2.7231 -10.2327 29.7336 -0.2834 2.4201 -9.5091 -0.2097 -2.9485 8.1354 -1.3637 0.5925 12.3641 1.7907 0.6540 7.2565 2.5534 0.2476 0.6314 1.2077 0.4088 -12.6521 -0.8340 0.4558 14.4043 -0.4229 0.2156 6.4692 -0.0000 -0.0000 0.0000 -83.7673 -0.6745 28.3569 11.2706 -18.7019 -1.8618 -0.0000 0.0000 -23.2183 24.4379 -7.9959 -3.6169 -7.1250 0.0000 -0.0000 -1.7433 21.2104 0.9950 -0.0000 -0.0000 0.0000 88.2475 4.4470 15.4480 -18.1987 28.4108 -4.6434 0.0000 0.0000 25.9244 -28.6331 -24.7120 12.8573 7.1250 -0.0000 -0.0000 0.9697 -57.6462 -0.3002
0.7454 17.5924 9.8351 -3.5332 0.6526 16.2734 0.0000 0.0000 0.0000 -15.9658 -3.5532 -33.6772 2.7570 10.2909 29.9239 0.2965 0.3214 -10.4064 0.0870 -1.9028 -5.2370 0.0000 0.0000 0.0000 18.2612 10.5918 -32.3571 -2.6977 -10.1888 29.5904 -0.2993 2.4392 -9.7780 -0.2038 -2.9070 8.0199 -1.3189 0.5990 12.3442 1.8137 0.6675 7.2573 2.5507 0.2551 0.6422 1.1911 0.3952 -12.7106 -0.8784 0.4464 14.2033 -0.4350 0.2063 6.4151 0.0000 -0.0000 0.0000 -84.1274 0.0272 28.1651 11.0540 -18.3709 -1.7929 -0.0000 0.0000 -22.7736 24.3366 -7.8727 -3.5450 -7.1250 0.0000 -0.0000 -1.8128 21.3522 1.0288 0.0000 -0.0000 0.0000 88.1623 4.0287 14.1471 -17.2128 27.1375 -4.1839 0.0000 0.0000 27.0174 -28.3275 -24.6897 12.6896 7.1250 -0.0000 -0.0000 1.3056 -57.5518 -0.4013
0.7538 17.5872 9.8803 -3.5436 0.6952 16.4076 0.0000 0.0000 0.0000 -16.0409 -3.5253 -33.6920 2.7637 10.3023 29.9613 0.3059 0.4597 -10.6234 0.0849 -1.8797 -5.1732 0.0000 0.0000 0.0000 18.2969 10.4998 -32.2591 -2.6724 -10.1448 29.4468 -0.3159 2.4490 -10.0521 -0.1944 -2.8392 7.8313 -1.2679 0.6120 12.3119 1.8410 0.6901 7.2561 2.5479 0.2672 0.6573 1.1611 0.3728 -12.7763 -0.9101 0.4255 14.0136 -0.4419 0.1918 6.3656 -0.0000 -0.0000 0.0000 -84.4796 0.7012 27.9962 10.8432 -18.0476 -1.7270 -0.0000 0.0000 -22.3140 24.2439 -7.7359 -3.4689 -7.1250 0.0000 -0.0000 -1.8758 21.5078 1.0580 -0.0000 -0.0000 0.0000 88.0582 3.5727 12.8016 -16.3332 25.9704 -3.7907 0.0000 0.0000 28.1519 -28.0156 -24.6696 12.5207 7.1250 -0.0000 -0.0000 1.6478 -57.4588 -0.5028
0.7618 17.5818 9.9238 -3.5444 0.7259 16.5456 0.0000 0.0000 0.0000 -16.0998 -3.5319 -33.7166 2.7742 10.3203 30.0202 0.3150 0.5836 -10.8294 0.0848 -1.8779 -5.1683 0.0000 0.0000 0.0000 18.3213 10.4225 -32.1715 -2.6477 -10.1016 29.3064 -0.3327 2.4409 -10.3248 -0.1835 -2.7592 7.6090 -1.2320 0.6337 12.2727 1.8659 0.7226 7.2536 2.5500 0.2839 0.6740 1.1224 0.3450 -12.8506 -0.9244 0.3962 13.8295 -0.4425 0.1742 6.3192 0.0000 0.0000 0.0000 -84.8169 1.3383 27.8594 10.6367 -17.7293 -1.6636 -0.0000 0.0000 -21.8427 24.1659 -7.5808 -3.3877 -7.1250 0.0000 -0.0000 -1.9279 21.6823 1.0798 0.0000 0.0000 0.0000 87.9422 3.0839 11.4388 -15.5589 24.9190 -3.4580 0.0000 0.0000 29.3013 -27.7157 -24.6421 12.3554 7.1250 -0.0000 -0.0000 1.9731 -57.3612 -0.5975
